<svg width="60" height="48" viewBox="0 0 60 48" fill="none" xmlns="http://www.w3.org/2000/svg">
<g clip-path="url(#clip0_7_91)">
<path d="M54.7625 0H37.9625C36.8089 0 35.1933 0.6692 34.3785 1.484L13.5493 22.3132C13.1565 22.7078 12.936 23.2419 12.936 23.7986C12.936 24.3553 13.1565 24.8894 13.5493 25.284L31.5785 43.3132C31.9731 43.7059 32.5071 43.9264 33.0639 43.9264C33.6206 43.9264 34.1547 43.7059 34.5493 43.3132L55.3785 22.484C56.1961 21.6664 56.8625 20.0536 56.8625 18.9V2.1C56.861 1.5435 56.6393 1.01021 56.2458 0.616709C55.8523 0.223202 55.319 0.0014781 54.7625 0ZM44.2625 16.8C43.7107 16.7998 43.1644 16.691 42.6548 16.4797C42.1451 16.2683 41.6821 15.9587 41.292 15.5684C40.902 15.1782 40.5927 14.7149 40.3818 14.2051C40.1708 13.6953 40.0623 13.1489 40.0625 12.5972C40.0627 12.0455 40.1715 11.4992 40.3828 10.9895C40.5941 10.4798 40.9038 10.0168 41.294 9.62677C41.6843 9.23677 42.1476 8.92745 42.6574 8.71648C43.1672 8.50551 43.7135 8.39702 44.2653 8.3972C45.3796 8.39757 46.4481 8.84057 47.2357 9.62875C48.0234 10.4169 48.4656 11.4857 48.4653 12.6C48.4649 13.7143 48.0219 14.7828 47.2337 15.5704C46.4455 16.3581 45.3768 16.8004 44.2625 16.8Z" fill="url(#paint0_linear_7_91)"/>
<path d="M5.66248 23.7739L29.4625 -0.026052H25.9625C24.8089 -0.026052 24.3773 -0.840852 23.5625 -0.026052L1.54928 22.2871C1.15653 22.6817 0.936035 23.2158 0.936035 23.7725C0.936035 24.3293 1.15653 24.8634 1.54928 25.2579L19.8293 43.2871C20.2239 43.6799 20.5071 43.9004 21.0639 43.9004C21.6206 43.9004 22.1547 43.6799 22.5493 43.2871L23.8653 41.9711L5.66527 23.7711L5.66248 23.7739Z" fill="url(#paint1_linear_7_91)"/>
</g>
<defs>
<linearGradient id="paint0_linear_7_91" x1="19.9669" y1="6.60045" x2="47.9471" y2="47.064" gradientUnits="userSpaceOnUse">
<stop stop-color="#FFD21F"/>
<stop offset="1" stop-color="#F7A72B"/>
</linearGradient>
<linearGradient id="paint1_linear_7_91" x1="5.502" y1="6.26668" x2="35.5785" y2="34.2821" gradientUnits="userSpaceOnUse">
<stop stop-color="#FFD21F"/>
<stop offset="1" stop-color="#F7A72B"/>
</linearGradient>
<clipPath id="clip0_7_91">
<rect width="60" height="48" fill="white"/>
</clipPath>
</defs>
</svg>
