<svg width="60" height="60" viewBox="0 0 60 60" fill="none" xmlns="http://www.w3.org/2000/svg">
<path d="M47.5 42.5V47.5H17.5V42.5C17.5 42.5 17.5 32.5 32.5 32.5C47.5 32.5 47.5 42.5 47.5 42.5ZM40 20C40 18.5166 39.5601 17.0666 38.736 15.8332C37.9119 14.5999 36.7406 13.6386 35.3701 13.0709C33.9997 12.5032 32.4917 12.3547 31.0368 12.6441C29.582 12.9335 28.2456 13.6478 27.1967 14.6967C26.1478 15.7456 25.4335 17.082 25.1441 18.5368C24.8547 19.9917 25.0032 21.4997 25.5709 22.8701C26.1386 24.2406 27.0999 25.4119 28.3332 26.236C29.5666 27.0601 31.0166 27.5 32.5 27.5C34.4891 27.5 36.3968 26.7098 37.8033 25.3033C39.2098 23.8968 40 21.9891 40 20ZM48 32.65C49.3666 33.9108 50.4683 35.4311 51.241 37.1223C52.0136 38.8135 52.4416 40.6416 52.5 42.5V47.5H60V42.5C60 42.5 60 33.875 48 32.65ZM45 12.5C44.2447 12.5005 43.494 12.6185 42.775 12.85C44.2376 14.9474 45.0218 17.443 45.0218 20C45.0218 22.557 44.2376 25.0526 42.775 27.15C43.494 27.3815 44.2447 27.4995 45 27.5C46.9891 27.5 48.8968 26.7098 50.3033 25.3033C51.7098 23.8968 52.5 21.9891 52.5 20C52.5 18.0109 51.7098 16.1032 50.3033 14.6967C48.8968 13.2902 46.9891 12.5 45 12.5ZM18.35 22.3L21.25 25.825L9.375 37.7L2.5 30.2L5.4 27.3L9.375 31.25L18.35 22.3Z" fill="url(#paint0_linear_6_75)"/>
<defs>
<linearGradient id="paint0_linear_6_75" x1="11.0899" y1="17.4085" x2="26.9942" y2="55.1943" gradientUnits="userSpaceOnUse">
<stop stop-color="#FFD21F"/>
<stop offset="1" stop-color="#F7A72B"/>
</linearGradient>
</defs>
</svg>
